<svg xmlns="http://www.w3.org/2000/svg" width="1200" height="630" viewBox="0 0 1200 630" role="img" aria-label="PolitiDex — Bound by Truth. Scan the QR code or visit politidex.fyi">
  <defs>
    <linearGradient id="bg" x1="0" y1="0" x2="1" y2="1">
      <stop offset="0" stop-color="#0d1526"/>
      <stop offset="0.5" stop-color="#0a0f1e"/>
      <stop offset="1" stop-color="#05080f"/>
    </linearGradient>
    <linearGradient id="tagline" x1="0" y1="0" x2="1" y2="0">
      <stop offset="0" stop-color="#f5c842"/>
      <stop offset="0.5" stop-color="#ffffff"/>
      <stop offset="1" stop-color="#60a5fa"/>
    </linearGradient>
    <linearGradient id="topbar" x1="0" y1="0" x2="1" y2="0">
      <stop offset="0" stop-color="#c0152a"/>
      <stop offset="0.5" stop-color="#ffffff"/>
      <stop offset="1" stop-color="#1d4ed8"/>
    </linearGradient>
    <radialGradient id="glow" cx="0.3" cy="0.5" r="0.7">
      <stop offset="0" stop-color="#c0152a" stop-opacity="0.22"/>
      <stop offset="1" stop-color="#c0152a" stop-opacity="0"/>
    </radialGradient>
  </defs>

  <!-- Background -->
  <rect width="1200" height="630" fill="url(#bg)"/>
  <rect width="1200" height="630" fill="url(#glow)"/>
  <rect width="1200" height="8" fill="url(#topbar)"/>

  <!-- Subtle star accents -->
  <text x="92" y="120" font-size="34" fill="#f5c842" opacity="0.18">★</text>
  <text x="640" y="540" font-size="26" fill="#60a5fa" opacity="0.16">★</text>
  <text x="500" y="96" font-size="20" fill="#ffffff" opacity="0.12">★</text>

  <!-- Logo badge -->
  <rect x="80" y="150" width="96" height="96" rx="22" fill="#c0152a" stroke="#f5c842" stroke-opacity="0.6" stroke-width="2"/>
  <text x="128" y="214" text-anchor="middle" font-family="Arial Black, Arial, sans-serif" font-weight="900" font-size="44" fill="#ffffff" letter-spacing="2">PX</text>

  <!-- Wordmark -->
  <text x="200" y="216" font-family="Arial Black, Arial, sans-serif" font-weight="900" font-size="66" letter-spacing="3">
    <tspan fill="#ffffff">POLITI</tspan><tspan fill="#ef4444">DEX</tspan>
  </text>

  <!-- Tagline -->
  <text x="84" y="320" font-family="Arial, sans-serif" font-weight="800" font-size="60" letter-spacing="6" fill="url(#tagline)">BOUND BY TRUTH</text>

  <!-- Supporting line -->
  <text x="86" y="372" font-family="Arial, sans-serif" font-weight="600" font-size="26" letter-spacing="2" fill="#9fb4d4">No spin. No sides. Just the record.</text>

  <!-- Call to action -->
  <text x="86" y="468" font-family="Arial, sans-serif" font-weight="700" font-size="24" letter-spacing="3" fill="#f5c842">SCAN TO EXPLORE  ·  POLITIDEX.FYI</text>
  <text x="86" y="506" font-family="Arial, sans-serif" font-weight="500" font-size="20" fill="#7e93b4">A free, nonpartisan scorecard for everyone on your ballot.</text>

  <!-- QR panel -->
  <rect x="834" y="159" width="312" height="312" rx="26" fill="#c0152a"/>
  <rect x="840" y="165" width="300" height="300" rx="20" fill="#ffffff"/>
  <rect x="865.93" y="190.93" width="10.33" height="10.33" fill="#0a0f1e"/><rect x="875.85" y="190.93" width="10.33" height="10.33" fill="#0a0f1e"/><rect x="885.78" y="190.93" width="10.33" height="10.33" fill="#0a0f1e"/><rect x="895.70" y="190.93" width="10.33" height="10.33" fill="#0a0f1e"/><rect x="905.63" y="190.93" width="10.33" height="10.33" fill="#0a0f1e"/><rect x="915.56" y="190.93" width="10.33" height="10.33" fill="#0a0f1e"/><rect x="925.48" y="190.93" width="10.33" height="10.33" fill="#0a0f1e"/><rect x="945.33" y="190.93" width="10.33" height="10.33" fill="#0a0f1e"/><rect x="975.11" y="190.93" width="10.33" height="10.33" fill="#0a0f1e"/><rect x="985.04" y="190.93" width="10.33" height="10.33" fill="#0a0f1e"/><rect x="1004.89" y="190.93" width="10.33" height="10.33" fill="#0a0f1e"/><rect x="1024.74" y="190.93" width="10.33" height="10.33" fill="#0a0f1e"/><rect x="1044.59" y="190.93" width="10.33" height="10.33" fill="#0a0f1e"/><rect x="1054.52" y="190.93" width="10.33" height="10.33" fill="#0a0f1e"/><rect x="1064.44" y="190.93" width="10.33" height="10.33" fill="#0a0f1e"/><rect x="1074.37" y="190.93" width="10.33" height="10.33" fill="#0a0f1e"/><rect x="1084.30" y="190.93" width="10.33" height="10.33" fill="#0a0f1e"/><rect x="1094.22" y="190.93" width="10.33" height="10.33" fill="#0a0f1e"/><rect x="1104.15" y="190.93" width="10.33" height="10.33" fill="#0a0f1e"/><rect x="865.93" y="200.85" width="10.33" height="10.33" fill="#0a0f1e"/><rect x="925.48" y="200.85" width="10.33" height="10.33" fill="#0a0f1e"/><rect x="945.33" y="200.85" width="10.33" height="10.33" fill="#0a0f1e"/><rect x="955.26" y="200.85" width="10.33" height="10.33" fill="#0a0f1e"/><rect x="965.19" y="200.85" width="10.33" height="10.33" fill="#0a0f1e"/><rect x="985.04" y="200.85" width="10.33" height="10.33" fill="#0a0f1e"/><rect x="994.96" y="200.85" width="10.33" height="10.33" fill="#0a0f1e"/><rect x="1004.89" y="200.85" width="10.33" height="10.33" fill="#0a0f1e"/><rect x="1044.59" y="200.85" width="10.33" height="10.33" fill="#0a0f1e"/><rect x="1104.15" y="200.85" width="10.33" height="10.33" fill="#0a0f1e"/><rect x="865.93" y="210.78" width="10.33" height="10.33" fill="#0a0f1e"/><rect x="885.78" y="210.78" width="10.33" height="10.33" fill="#0a0f1e"/><rect x="895.70" y="210.78" width="10.33" height="10.33" fill="#0a0f1e"/><rect x="905.63" y="210.78" width="10.33" height="10.33" fill="#0a0f1e"/><rect x="925.48" y="210.78" width="10.33" height="10.33" fill="#0a0f1e"/><rect x="965.19" y="210.78" width="10.33" height="10.33" fill="#0a0f1e"/><rect x="975.11" y="210.78" width="10.33" height="10.33" fill="#0a0f1e"/><rect x="985.04" y="210.78" width="10.33" height="10.33" fill="#0a0f1e"/><rect x="994.96" y="210.78" width="10.33" height="10.33" fill="#0a0f1e"/><rect x="1004.89" y="210.78" width="10.33" height="10.33" fill="#0a0f1e"/><rect x="1014.81" y="210.78" width="10.33" height="10.33" fill="#0a0f1e"/><rect x="1024.74" y="210.78" width="10.33" height="10.33" fill="#0a0f1e"/><rect x="1044.59" y="210.78" width="10.33" height="10.33" fill="#0a0f1e"/><rect x="1064.44" y="210.78" width="10.33" height="10.33" fill="#0a0f1e"/><rect x="1074.37" y="210.78" width="10.33" height="10.33" fill="#0a0f1e"/><rect x="1084.30" y="210.78" width="10.33" height="10.33" fill="#0a0f1e"/><rect x="1104.15" y="210.78" width="10.33" height="10.33" fill="#0a0f1e"/><rect x="865.93" y="220.70" width="10.33" height="10.33" fill="#0a0f1e"/><rect x="885.78" y="220.70" width="10.33" height="10.33" fill="#0a0f1e"/><rect x="895.70" y="220.70" width="10.33" height="10.33" fill="#0a0f1e"/><rect x="905.63" y="220.70" width="10.33" height="10.33" fill="#0a0f1e"/><rect x="925.48" y="220.70" width="10.33" height="10.33" fill="#0a0f1e"/><rect x="965.19" y="220.70" width="10.33" height="10.33" fill="#0a0f1e"/><rect x="994.96" y="220.70" width="10.33" height="10.33" fill="#0a0f1e"/><rect x="1004.89" y="220.70" width="10.33" height="10.33" fill="#0a0f1e"/><rect x="1014.81" y="220.70" width="10.33" height="10.33" fill="#0a0f1e"/><rect x="1024.74" y="220.70" width="10.33" height="10.33" fill="#0a0f1e"/><rect x="1044.59" y="220.70" width="10.33" height="10.33" fill="#0a0f1e"/><rect x="1064.44" y="220.70" width="10.33" height="10.33" fill="#0a0f1e"/><rect x="1074.37" y="220.70" width="10.33" height="10.33" fill="#0a0f1e"/><rect x="1084.30" y="220.70" width="10.33" height="10.33" fill="#0a0f1e"/><rect x="1104.15" y="220.70" width="10.33" height="10.33" fill="#0a0f1e"/><rect x="865.93" y="230.63" width="10.33" height="10.33" fill="#0a0f1e"/><rect x="885.78" y="230.63" width="10.33" height="10.33" fill="#0a0f1e"/><rect x="895.70" y="230.63" width="10.33" height="10.33" fill="#0a0f1e"/><rect x="905.63" y="230.63" width="10.33" height="10.33" fill="#0a0f1e"/><rect x="925.48" y="230.63" width="10.33" height="10.33" fill="#0a0f1e"/><rect x="945.33" y="230.63" width="10.33" height="10.33" fill="#0a0f1e"/><rect x="955.26" y="230.63" width="10.33" height="10.33" fill="#0a0f1e"/><rect x="965.19" y="230.63" width="10.33" height="10.33" fill="#0a0f1e"/><rect x="975.11" y="230.63" width="10.33" height="10.33" fill="#0a0f1e"/><rect x="994.96" y="230.63" width="10.33" height="10.33" fill="#0a0f1e"/><rect x="1004.89" y="230.63" width="10.33" height="10.33" fill="#0a0f1e"/><rect x="1044.59" y="230.63" width="10.33" height="10.33" fill="#0a0f1e"/><rect x="1064.44" y="230.63" width="10.33" height="10.33" fill="#0a0f1e"/><rect x="1074.37" y="230.63" width="10.33" height="10.33" fill="#0a0f1e"/><rect x="1084.30" y="230.63" width="10.33" height="10.33" fill="#0a0f1e"/><rect x="1104.15" y="230.63" width="10.33" height="10.33" fill="#0a0f1e"/><rect x="865.93" y="240.56" width="10.33" height="10.33" fill="#0a0f1e"/><rect x="925.48" y="240.56" width="10.33" height="10.33" fill="#0a0f1e"/><rect x="945.33" y="240.56" width="10.33" height="10.33" fill="#0a0f1e"/><rect x="975.11" y="240.56" width="10.33" height="10.33" fill="#0a0f1e"/><rect x="994.96" y="240.56" width="10.33" height="10.33" fill="#0a0f1e"/><rect x="1004.89" y="240.56" width="10.33" height="10.33" fill="#0a0f1e"/><rect x="1024.74" y="240.56" width="10.33" height="10.33" fill="#0a0f1e"/><rect x="1044.59" y="240.56" width="10.33" height="10.33" fill="#0a0f1e"/><rect x="1104.15" y="240.56" width="10.33" height="10.33" fill="#0a0f1e"/><rect x="865.93" y="250.48" width="10.33" height="10.33" fill="#0a0f1e"/><rect x="875.85" y="250.48" width="10.33" height="10.33" fill="#0a0f1e"/><rect x="885.78" y="250.48" width="10.33" height="10.33" fill="#0a0f1e"/><rect x="895.70" y="250.48" width="10.33" height="10.33" fill="#0a0f1e"/><rect x="905.63" y="250.48" width="10.33" height="10.33" fill="#0a0f1e"/><rect x="915.56" y="250.48" width="10.33" height="10.33" fill="#0a0f1e"/><rect x="925.48" y="250.48" width="10.33" height="10.33" fill="#0a0f1e"/><rect x="945.33" y="250.48" width="10.33" height="10.33" fill="#0a0f1e"/><rect x="965.19" y="250.48" width="10.33" height="10.33" fill="#0a0f1e"/><rect x="985.04" y="250.48" width="10.33" height="10.33" fill="#0a0f1e"/><rect x="1004.89" y="250.48" width="10.33" height="10.33" fill="#0a0f1e"/><rect x="1024.74" y="250.48" width="10.33" height="10.33" fill="#0a0f1e"/><rect x="1044.59" y="250.48" width="10.33" height="10.33" fill="#0a0f1e"/><rect x="1054.52" y="250.48" width="10.33" height="10.33" fill="#0a0f1e"/><rect x="1064.44" y="250.48" width="10.33" height="10.33" fill="#0a0f1e"/><rect x="1074.37" y="250.48" width="10.33" height="10.33" fill="#0a0f1e"/><rect x="1084.30" y="250.48" width="10.33" height="10.33" fill="#0a0f1e"/><rect x="1094.22" y="250.48" width="10.33" height="10.33" fill="#0a0f1e"/><rect x="1104.15" y="250.48" width="10.33" height="10.33" fill="#0a0f1e"/><rect x="945.33" y="260.41" width="10.33" height="10.33" fill="#0a0f1e"/><rect x="965.19" y="260.41" width="10.33" height="10.33" fill="#0a0f1e"/><rect x="975.11" y="260.41" width="10.33" height="10.33" fill="#0a0f1e"/><rect x="985.04" y="260.41" width="10.33" height="10.33" fill="#0a0f1e"/><rect x="1024.74" y="260.41" width="10.33" height="10.33" fill="#0a0f1e"/><rect x="865.93" y="270.33" width="10.33" height="10.33" fill="#0a0f1e"/><rect x="875.85" y="270.33" width="10.33" height="10.33" fill="#0a0f1e"/><rect x="885.78" y="270.33" width="10.33" height="10.33" fill="#0a0f1e"/><rect x="915.56" y="270.33" width="10.33" height="10.33" fill="#0a0f1e"/><rect x="925.48" y="270.33" width="10.33" height="10.33" fill="#0a0f1e"/><rect x="945.33" y="270.33" width="10.33" height="10.33" fill="#0a0f1e"/><rect x="955.26" y="270.33" width="10.33" height="10.33" fill="#0a0f1e"/><rect x="965.19" y="270.33" width="10.33" height="10.33" fill="#0a0f1e"/><rect x="1014.81" y="270.33" width="10.33" height="10.33" fill="#0a0f1e"/><rect x="1024.74" y="270.33" width="10.33" height="10.33" fill="#0a0f1e"/><rect x="1034.67" y="270.33" width="10.33" height="10.33" fill="#0a0f1e"/><rect x="1044.59" y="270.33" width="10.33" height="10.33" fill="#0a0f1e"/><rect x="1054.52" y="270.33" width="10.33" height="10.33" fill="#0a0f1e"/><rect x="1064.44" y="270.33" width="10.33" height="10.33" fill="#0a0f1e"/><rect x="1094.22" y="270.33" width="10.33" height="10.33" fill="#0a0f1e"/><rect x="1104.15" y="270.33" width="10.33" height="10.33" fill="#0a0f1e"/><rect x="905.63" y="280.26" width="10.33" height="10.33" fill="#0a0f1e"/><rect x="915.56" y="280.26" width="10.33" height="10.33" fill="#0a0f1e"/><rect x="945.33" y="280.26" width="10.33" height="10.33" fill="#0a0f1e"/><rect x="955.26" y="280.26" width="10.33" height="10.33" fill="#0a0f1e"/><rect x="965.19" y="280.26" width="10.33" height="10.33" fill="#0a0f1e"/><rect x="994.96" y="280.26" width="10.33" height="10.33" fill="#0a0f1e"/><rect x="1004.89" y="280.26" width="10.33" height="10.33" fill="#0a0f1e"/><rect x="1014.81" y="280.26" width="10.33" height="10.33" fill="#0a0f1e"/><rect x="1024.74" y="280.26" width="10.33" height="10.33" fill="#0a0f1e"/><rect x="1044.59" y="280.26" width="10.33" height="10.33" fill="#0a0f1e"/><rect x="1054.52" y="280.26" width="10.33" height="10.33" fill="#0a0f1e"/><rect x="1074.37" y="280.26" width="10.33" height="10.33" fill="#0a0f1e"/><rect x="1094.22" y="280.26" width="10.33" height="10.33" fill="#0a0f1e"/><rect x="1104.15" y="280.26" width="10.33" height="10.33" fill="#0a0f1e"/><rect x="865.93" y="290.19" width="10.33" height="10.33" fill="#0a0f1e"/><rect x="875.85" y="290.19" width="10.33" height="10.33" fill="#0a0f1e"/><rect x="885.78" y="290.19" width="10.33" height="10.33" fill="#0a0f1e"/><rect x="895.70" y="290.19" width="10.33" height="10.33" fill="#0a0f1e"/><rect x="915.56" y="290.19" width="10.33" height="10.33" fill="#0a0f1e"/><rect x="925.48" y="290.19" width="10.33" height="10.33" fill="#0a0f1e"/><rect x="935.41" y="290.19" width="10.33" height="10.33" fill="#0a0f1e"/><rect x="975.11" y="290.19" width="10.33" height="10.33" fill="#0a0f1e"/><rect x="994.96" y="290.19" width="10.33" height="10.33" fill="#0a0f1e"/><rect x="1004.89" y="290.19" width="10.33" height="10.33" fill="#0a0f1e"/><rect x="1014.81" y="290.19" width="10.33" height="10.33" fill="#0a0f1e"/><rect x="1024.74" y="290.19" width="10.33" height="10.33" fill="#0a0f1e"/><rect x="1054.52" y="290.19" width="10.33" height="10.33" fill="#0a0f1e"/><rect x="1064.44" y="290.19" width="10.33" height="10.33" fill="#0a0f1e"/><rect x="1074.37" y="290.19" width="10.33" height="10.33" fill="#0a0f1e"/><rect x="1084.30" y="290.19" width="10.33" height="10.33" fill="#0a0f1e"/><rect x="1104.15" y="290.19" width="10.33" height="10.33" fill="#0a0f1e"/><rect x="865.93" y="300.11" width="10.33" height="10.33" fill="#0a0f1e"/><rect x="875.85" y="300.11" width="10.33" height="10.33" fill="#0a0f1e"/><rect x="885.78" y="300.11" width="10.33" height="10.33" fill="#0a0f1e"/><rect x="905.63" y="300.11" width="10.33" height="10.33" fill="#0a0f1e"/><rect x="915.56" y="300.11" width="10.33" height="10.33" fill="#0a0f1e"/><rect x="935.41" y="300.11" width="10.33" height="10.33" fill="#0a0f1e"/><rect x="955.26" y="300.11" width="10.33" height="10.33" fill="#0a0f1e"/><rect x="1004.89" y="300.11" width="10.33" height="10.33" fill="#0a0f1e"/><rect x="1024.74" y="300.11" width="10.33" height="10.33" fill="#0a0f1e"/><rect x="1034.67" y="300.11" width="10.33" height="10.33" fill="#0a0f1e"/><rect x="1044.59" y="300.11" width="10.33" height="10.33" fill="#0a0f1e"/><rect x="1074.37" y="300.11" width="10.33" height="10.33" fill="#0a0f1e"/><rect x="885.78" y="310.04" width="10.33" height="10.33" fill="#0a0f1e"/><rect x="915.56" y="310.04" width="10.33" height="10.33" fill="#0a0f1e"/><rect x="925.48" y="310.04" width="10.33" height="10.33" fill="#0a0f1e"/><rect x="955.26" y="310.04" width="10.33" height="10.33" fill="#0a0f1e"/><rect x="975.11" y="310.04" width="10.33" height="10.33" fill="#0a0f1e"/><rect x="985.04" y="310.04" width="10.33" height="10.33" fill="#0a0f1e"/><rect x="1014.81" y="310.04" width="10.33" height="10.33" fill="#0a0f1e"/><rect x="1024.74" y="310.04" width="10.33" height="10.33" fill="#0a0f1e"/><rect x="1044.59" y="310.04" width="10.33" height="10.33" fill="#0a0f1e"/><rect x="1104.15" y="310.04" width="10.33" height="10.33" fill="#0a0f1e"/><rect x="885.78" y="319.96" width="10.33" height="10.33" fill="#0a0f1e"/><rect x="895.70" y="319.96" width="10.33" height="10.33" fill="#0a0f1e"/><rect x="905.63" y="319.96" width="10.33" height="10.33" fill="#0a0f1e"/><rect x="915.56" y="319.96" width="10.33" height="10.33" fill="#0a0f1e"/><rect x="955.26" y="319.96" width="10.33" height="10.33" fill="#0a0f1e"/><rect x="985.04" y="319.96" width="10.33" height="10.33" fill="#0a0f1e"/><rect x="994.96" y="319.96" width="10.33" height="10.33" fill="#0a0f1e"/><rect x="1014.81" y="319.96" width="10.33" height="10.33" fill="#0a0f1e"/><rect x="1024.74" y="319.96" width="10.33" height="10.33" fill="#0a0f1e"/><rect x="1044.59" y="319.96" width="10.33" height="10.33" fill="#0a0f1e"/><rect x="1054.52" y="319.96" width="10.33" height="10.33" fill="#0a0f1e"/><rect x="1094.22" y="319.96" width="10.33" height="10.33" fill="#0a0f1e"/><rect x="1104.15" y="319.96" width="10.33" height="10.33" fill="#0a0f1e"/><rect x="865.93" y="329.89" width="10.33" height="10.33" fill="#0a0f1e"/><rect x="875.85" y="329.89" width="10.33" height="10.33" fill="#0a0f1e"/><rect x="925.48" y="329.89" width="10.33" height="10.33" fill="#0a0f1e"/><rect x="945.33" y="329.89" width="10.33" height="10.33" fill="#0a0f1e"/><rect x="985.04" y="329.89" width="10.33" height="10.33" fill="#0a0f1e"/><rect x="994.96" y="329.89" width="10.33" height="10.33" fill="#0a0f1e"/><rect x="1004.89" y="329.89" width="10.33" height="10.33" fill="#0a0f1e"/><rect x="1014.81" y="329.89" width="10.33" height="10.33" fill="#0a0f1e"/><rect x="1074.37" y="329.89" width="10.33" height="10.33" fill="#0a0f1e"/><rect x="1084.30" y="329.89" width="10.33" height="10.33" fill="#0a0f1e"/><rect x="1104.15" y="329.89" width="10.33" height="10.33" fill="#0a0f1e"/><rect x="885.78" y="339.81" width="10.33" height="10.33" fill="#0a0f1e"/><rect x="905.63" y="339.81" width="10.33" height="10.33" fill="#0a0f1e"/><rect x="915.56" y="339.81" width="10.33" height="10.33" fill="#0a0f1e"/><rect x="935.41" y="339.81" width="10.33" height="10.33" fill="#0a0f1e"/><rect x="955.26" y="339.81" width="10.33" height="10.33" fill="#0a0f1e"/><rect x="965.19" y="339.81" width="10.33" height="10.33" fill="#0a0f1e"/><rect x="975.11" y="339.81" width="10.33" height="10.33" fill="#0a0f1e"/><rect x="985.04" y="339.81" width="10.33" height="10.33" fill="#0a0f1e"/><rect x="1004.89" y="339.81" width="10.33" height="10.33" fill="#0a0f1e"/><rect x="1054.52" y="339.81" width="10.33" height="10.33" fill="#0a0f1e"/><rect x="1064.44" y="339.81" width="10.33" height="10.33" fill="#0a0f1e"/><rect x="1074.37" y="339.81" width="10.33" height="10.33" fill="#0a0f1e"/><rect x="865.93" y="349.74" width="10.33" height="10.33" fill="#0a0f1e"/><rect x="875.85" y="349.74" width="10.33" height="10.33" fill="#0a0f1e"/><rect x="885.78" y="349.74" width="10.33" height="10.33" fill="#0a0f1e"/><rect x="895.70" y="349.74" width="10.33" height="10.33" fill="#0a0f1e"/><rect x="905.63" y="349.74" width="10.33" height="10.33" fill="#0a0f1e"/><rect x="925.48" y="349.74" width="10.33" height="10.33" fill="#0a0f1e"/><rect x="945.33" y="349.74" width="10.33" height="10.33" fill="#0a0f1e"/><rect x="965.19" y="349.74" width="10.33" height="10.33" fill="#0a0f1e"/><rect x="994.96" y="349.74" width="10.33" height="10.33" fill="#0a0f1e"/><rect x="1004.89" y="349.74" width="10.33" height="10.33" fill="#0a0f1e"/><rect x="1024.74" y="349.74" width="10.33" height="10.33" fill="#0a0f1e"/><rect x="1034.67" y="349.74" width="10.33" height="10.33" fill="#0a0f1e"/><rect x="1044.59" y="349.74" width="10.33" height="10.33" fill="#0a0f1e"/><rect x="1054.52" y="349.74" width="10.33" height="10.33" fill="#0a0f1e"/><rect x="1064.44" y="349.74" width="10.33" height="10.33" fill="#0a0f1e"/><rect x="1094.22" y="349.74" width="10.33" height="10.33" fill="#0a0f1e"/><rect x="945.33" y="359.67" width="10.33" height="10.33" fill="#0a0f1e"/><rect x="965.19" y="359.67" width="10.33" height="10.33" fill="#0a0f1e"/><rect x="994.96" y="359.67" width="10.33" height="10.33" fill="#0a0f1e"/><rect x="1024.74" y="359.67" width="10.33" height="10.33" fill="#0a0f1e"/><rect x="1064.44" y="359.67" width="10.33" height="10.33" fill="#0a0f1e"/><rect x="1104.15" y="359.67" width="10.33" height="10.33" fill="#0a0f1e"/><rect x="865.93" y="369.59" width="10.33" height="10.33" fill="#0a0f1e"/><rect x="875.85" y="369.59" width="10.33" height="10.33" fill="#0a0f1e"/><rect x="885.78" y="369.59" width="10.33" height="10.33" fill="#0a0f1e"/><rect x="895.70" y="369.59" width="10.33" height="10.33" fill="#0a0f1e"/><rect x="905.63" y="369.59" width="10.33" height="10.33" fill="#0a0f1e"/><rect x="915.56" y="369.59" width="10.33" height="10.33" fill="#0a0f1e"/><rect x="925.48" y="369.59" width="10.33" height="10.33" fill="#0a0f1e"/><rect x="975.11" y="369.59" width="10.33" height="10.33" fill="#0a0f1e"/><rect x="1024.74" y="369.59" width="10.33" height="10.33" fill="#0a0f1e"/><rect x="1044.59" y="369.59" width="10.33" height="10.33" fill="#0a0f1e"/><rect x="1064.44" y="369.59" width="10.33" height="10.33" fill="#0a0f1e"/><rect x="1104.15" y="369.59" width="10.33" height="10.33" fill="#0a0f1e"/><rect x="865.93" y="379.52" width="10.33" height="10.33" fill="#0a0f1e"/><rect x="925.48" y="379.52" width="10.33" height="10.33" fill="#0a0f1e"/><rect x="945.33" y="379.52" width="10.33" height="10.33" fill="#0a0f1e"/><rect x="994.96" y="379.52" width="10.33" height="10.33" fill="#0a0f1e"/><rect x="1014.81" y="379.52" width="10.33" height="10.33" fill="#0a0f1e"/><rect x="1024.74" y="379.52" width="10.33" height="10.33" fill="#0a0f1e"/><rect x="1064.44" y="379.52" width="10.33" height="10.33" fill="#0a0f1e"/><rect x="1094.22" y="379.52" width="10.33" height="10.33" fill="#0a0f1e"/><rect x="865.93" y="389.44" width="10.33" height="10.33" fill="#0a0f1e"/><rect x="885.78" y="389.44" width="10.33" height="10.33" fill="#0a0f1e"/><rect x="895.70" y="389.44" width="10.33" height="10.33" fill="#0a0f1e"/><rect x="905.63" y="389.44" width="10.33" height="10.33" fill="#0a0f1e"/><rect x="925.48" y="389.44" width="10.33" height="10.33" fill="#0a0f1e"/><rect x="965.19" y="389.44" width="10.33" height="10.33" fill="#0a0f1e"/><rect x="975.11" y="389.44" width="10.33" height="10.33" fill="#0a0f1e"/><rect x="985.04" y="389.44" width="10.33" height="10.33" fill="#0a0f1e"/><rect x="994.96" y="389.44" width="10.33" height="10.33" fill="#0a0f1e"/><rect x="1014.81" y="389.44" width="10.33" height="10.33" fill="#0a0f1e"/><rect x="1024.74" y="389.44" width="10.33" height="10.33" fill="#0a0f1e"/><rect x="1034.67" y="389.44" width="10.33" height="10.33" fill="#0a0f1e"/><rect x="1044.59" y="389.44" width="10.33" height="10.33" fill="#0a0f1e"/><rect x="1054.52" y="389.44" width="10.33" height="10.33" fill="#0a0f1e"/><rect x="1064.44" y="389.44" width="10.33" height="10.33" fill="#0a0f1e"/><rect x="1104.15" y="389.44" width="10.33" height="10.33" fill="#0a0f1e"/><rect x="865.93" y="399.37" width="10.33" height="10.33" fill="#0a0f1e"/><rect x="885.78" y="399.37" width="10.33" height="10.33" fill="#0a0f1e"/><rect x="895.70" y="399.37" width="10.33" height="10.33" fill="#0a0f1e"/><rect x="905.63" y="399.37" width="10.33" height="10.33" fill="#0a0f1e"/><rect x="925.48" y="399.37" width="10.33" height="10.33" fill="#0a0f1e"/><rect x="955.26" y="399.37" width="10.33" height="10.33" fill="#0a0f1e"/><rect x="985.04" y="399.37" width="10.33" height="10.33" fill="#0a0f1e"/><rect x="1034.67" y="399.37" width="10.33" height="10.33" fill="#0a0f1e"/><rect x="1064.44" y="399.37" width="10.33" height="10.33" fill="#0a0f1e"/><rect x="1084.30" y="399.37" width="10.33" height="10.33" fill="#0a0f1e"/><rect x="1094.22" y="399.37" width="10.33" height="10.33" fill="#0a0f1e"/><rect x="865.93" y="409.30" width="10.33" height="10.33" fill="#0a0f1e"/><rect x="885.78" y="409.30" width="10.33" height="10.33" fill="#0a0f1e"/><rect x="895.70" y="409.30" width="10.33" height="10.33" fill="#0a0f1e"/><rect x="905.63" y="409.30" width="10.33" height="10.33" fill="#0a0f1e"/><rect x="925.48" y="409.30" width="10.33" height="10.33" fill="#0a0f1e"/><rect x="945.33" y="409.30" width="10.33" height="10.33" fill="#0a0f1e"/><rect x="965.19" y="409.30" width="10.33" height="10.33" fill="#0a0f1e"/><rect x="985.04" y="409.30" width="10.33" height="10.33" fill="#0a0f1e"/><rect x="994.96" y="409.30" width="10.33" height="10.33" fill="#0a0f1e"/><rect x="1004.89" y="409.30" width="10.33" height="10.33" fill="#0a0f1e"/><rect x="1024.74" y="409.30" width="10.33" height="10.33" fill="#0a0f1e"/><rect x="1034.67" y="409.30" width="10.33" height="10.33" fill="#0a0f1e"/><rect x="1054.52" y="409.30" width="10.33" height="10.33" fill="#0a0f1e"/><rect x="1064.44" y="409.30" width="10.33" height="10.33" fill="#0a0f1e"/><rect x="1074.37" y="409.30" width="10.33" height="10.33" fill="#0a0f1e"/><rect x="1094.22" y="409.30" width="10.33" height="10.33" fill="#0a0f1e"/><rect x="1104.15" y="409.30" width="10.33" height="10.33" fill="#0a0f1e"/><rect x="865.93" y="419.22" width="10.33" height="10.33" fill="#0a0f1e"/><rect x="925.48" y="419.22" width="10.33" height="10.33" fill="#0a0f1e"/><rect x="945.33" y="419.22" width="10.33" height="10.33" fill="#0a0f1e"/><rect x="965.19" y="419.22" width="10.33" height="10.33" fill="#0a0f1e"/><rect x="975.11" y="419.22" width="10.33" height="10.33" fill="#0a0f1e"/><rect x="985.04" y="419.22" width="10.33" height="10.33" fill="#0a0f1e"/><rect x="1004.89" y="419.22" width="10.33" height="10.33" fill="#0a0f1e"/><rect x="1014.81" y="419.22" width="10.33" height="10.33" fill="#0a0f1e"/><rect x="1024.74" y="419.22" width="10.33" height="10.33" fill="#0a0f1e"/><rect x="1044.59" y="419.22" width="10.33" height="10.33" fill="#0a0f1e"/><rect x="1054.52" y="419.22" width="10.33" height="10.33" fill="#0a0f1e"/><rect x="1064.44" y="419.22" width="10.33" height="10.33" fill="#0a0f1e"/><rect x="865.93" y="429.15" width="10.33" height="10.33" fill="#0a0f1e"/><rect x="875.85" y="429.15" width="10.33" height="10.33" fill="#0a0f1e"/><rect x="885.78" y="429.15" width="10.33" height="10.33" fill="#0a0f1e"/><rect x="895.70" y="429.15" width="10.33" height="10.33" fill="#0a0f1e"/><rect x="905.63" y="429.15" width="10.33" height="10.33" fill="#0a0f1e"/><rect x="915.56" y="429.15" width="10.33" height="10.33" fill="#0a0f1e"/><rect x="925.48" y="429.15" width="10.33" height="10.33" fill="#0a0f1e"/><rect x="945.33" y="429.15" width="10.33" height="10.33" fill="#0a0f1e"/><rect x="955.26" y="429.15" width="10.33" height="10.33" fill="#0a0f1e"/><rect x="994.96" y="429.15" width="10.33" height="10.33" fill="#0a0f1e"/><rect x="1004.89" y="429.15" width="10.33" height="10.33" fill="#0a0f1e"/><rect x="1024.74" y="429.15" width="10.33" height="10.33" fill="#0a0f1e"/><rect x="1044.59" y="429.15" width="10.33" height="10.33" fill="#0a0f1e"/><rect x="1074.37" y="429.15" width="10.33" height="10.33" fill="#0a0f1e"/><rect x="1104.15" y="429.15" width="10.33" height="10.33" fill="#0a0f1e"/>
</svg>
